<?xml version="1.0" encoding="utf-8"?>
<!-- Generator: Adobe Illustrator 16.0.0, SVG Export Plug-In . SVG Version: 6.00 Build 0)  -->
<!DOCTYPE svg PUBLIC "-//W3C//DTD SVG 1.1//EN" "http://www.w3.org/Graphics/SVG/1.1/DTD/svg11.dtd">
<svg version="1.1" id="Capa_1" xmlns="http://www.w3.org/2000/svg" xmlns:xlink="http://www.w3.org/1999/xlink" x="0px" y="0px"
	 width="419px" height="512px" viewBox="45.5 0 419 512" enable-background="new 45.5 0 419 512" xml:space="preserve">
<g>
	<g>
		<path fill="#FFFFFF" d="M255.893,0C142.759,0,50.663,92.096,50.663,205.229c0,12.88,1.181,25.868,3.65,38.534
			c0.107,0.751,0.537,3.005,1.395,6.87c3.113,13.846,7.729,27.478,13.739,40.466c22.112,52.059,70.735,132.025,177.429,217.681
			c2.683,2.146,5.903,3.22,9.124,3.22c3.221,0,6.44-1.073,9.123-3.22C371.71,423.125,420.441,343.158,442.553,291.1
			c6.011-12.988,10.626-26.513,13.739-40.466c0.858-3.864,1.288-6.119,1.396-6.87c2.361-12.666,3.649-25.654,3.649-38.534
			C461.122,92.096,369.026,0,255.893,0z M428.921,238.719c0,0.214-0.107,0.429-0.107,0.644c-0.107,0.537-0.43,2.146-0.966,4.615
			c0,0.107,0,0.107,0,0.215c-2.684,12.022-6.655,23.721-11.915,34.993c-0.107,0.106-0.107,0.321-0.215,0.429
			c-20.071,47.55-64.08,120.11-159.825,199.219c-95.745-79.108-139.753-151.669-159.826-199.219
			c-0.107-0.107-0.107-0.322-0.214-0.429c-5.152-11.164-9.124-22.971-11.915-34.993c0-0.107,0-0.107,0-0.215
			c-0.644-2.469-0.859-4.079-0.966-4.615c0-0.215-0.107-0.429-0.107-0.751c-2.147-11.056-3.22-22.219-3.22-33.489
			c0-97.141,79.107-176.248,176.248-176.248s176.248,79.107,176.248,176.248C432.141,216.5,431.067,227.77,428.921,238.719z"/>
		<path fill="#FFFFFF" d="M255.893,77.176c-71.809,0-130.308,58.499-130.308,130.308s58.499,130.308,130.308,130.308
			S386.2,279.292,386.2,207.483S327.701,77.176,255.893,77.176z M255.893,308.811c-55.923,0-101.327-45.512-101.327-101.327
			s45.511-101.327,101.327-101.327S357.22,151.668,357.22,207.483S311.815,308.811,255.893,308.811z"/>
	</g>
</g>
</svg>
