<?xml version="1.0" encoding="iso-8859-1"?>
<!-- Generator: Adobe Illustrator 19.0.0, SVG Export Plug-In . SVG Version: 6.00 Build 0)  -->
<svg xmlns="http://www.w3.org/2000/svg" xmlns:xlink="http://www.w3.org/1999/xlink" version="1.1" id="Layer_1" x="0px" y="0px" viewBox="0 0 511.999 511.999" style="enable-background:new 0 0 511.999 511.999;" xml:space="preserve" width="512px" height="512px">
<g>
	<g>
		<path d="M380.525,224.219l-46.651-92.543c-2.072-4.108-7.083-5.761-11.191-3.689c-4.109,2.072-5.761,7.082-3.69,11.191    l40.099,79.538l-52.979-3.413l-38.268-75.909l28.762-44.621l8.971,17.795c2.072,4.108,7.083,5.761,11.191,3.689    c4.109-2.072,5.761-7.082,3.69-11.191L304.933,74.27c-1.345-2.669-4.016-4.412-7.001-4.569c-2.975-0.159-5.824,1.295-7.442,3.806    l-38.007,58.961l-78.641,39.644c-10.888,5.489-16.411,17.44-14.281,28.866l-6.805,3.431c-8.649,4.359-15.081,11.826-18.114,21.025    c-3.033,9.199-2.301,19.026,2.06,27.674c4.359,8.648,11.826,15.081,21.024,18.113c3.733,1.231,7.569,1.841,11.388,1.841    c5.591,0,11.147-1.31,16.285-3.899l6.803-3.43c3.042,3.281,6.87,5.767,11.237,7.207c2.761,0.91,5.597,1.362,8.422,1.362    c3.458,0,6.896-0.688,10.152-2.03l30.177,37.787c5.518,6.91,13.826,10.654,22.275,10.654c4.318,0,8.675-0.979,12.711-3.014    c7.677-3.871,13.131-10.907,14.967-19.307c1.835-8.4-0.191-17.07-5.556-23.789l-22.677-28.395l28.634-14.435l70.004,4.51    c0.18,0.011,0.359,0.018,0.537,0.018c2.785,0,5.4-1.394,6.95-3.737C381.683,230.072,381.87,226.888,380.525,224.219z     M177.899,254.281c-4.675,2.356-9.984,2.751-14.954,1.112c-4.971-1.639-9.005-5.115-11.362-9.789s-2.752-9.984-1.113-14.955    c1.639-4.97,5.115-9.005,9.789-11.362l5.854-2.951l17.641,34.993L177.899,254.281z M283.567,285.001    c2.217,2.777,3.055,6.362,2.296,9.835c-0.759,3.473-3.014,6.381-6.187,7.982c-4.935,2.487-11.016,1.159-14.465-3.158    l-27.937-34.983l21.433-10.805L283.567,285.001z M216.403,256.539c-2.422,1.219-5.173,1.422-7.747,0.574    c-2.574-0.849-4.663-2.648-5.884-5.069l-25.922-51.419c-2.52-4.997-0.503-11.111,4.493-13.63l73.225-36.915l12.414,24.624    l22.646,44.92L216.403,256.539z" fill="#FFFFFF"/>
	</g>
</g>
<g>
	<g>
		<path d="M407.808,116.435c-2.072-4.108-7.081-5.761-11.191-3.689l-33.954,17.117c-4.109,2.072-5.76,7.082-3.689,11.192    c1.465,2.906,4.4,4.583,7.447,4.583c1.261,0,2.542-0.288,3.744-0.894l33.954-17.117    C408.228,125.553,409.88,120.543,407.808,116.435z" fill="#FFFFFF"/>
	</g>
</g>
<g>
	<g>
		<path d="M381.116,64.601c-3.352-3.153-8.625-2.992-11.778,0.36l-27.725,29.474c-3.153,3.352-2.992,8.624,0.36,11.778    c1.61,1.513,3.661,2.263,5.708,2.263c2.217,0,4.43-0.88,6.07-2.623l27.725-29.474C384.629,73.028,384.467,67.755,381.116,64.601z" fill="#FFFFFF"/>
	</g>
</g>
<g>
	<g>
		<path d="M433.607,168.723c-0.541-4.57-4.69-7.834-9.255-7.294l-40.184,4.76c-4.569,0.541-7.836,4.685-7.293,9.254    c0.502,4.237,4.099,7.352,8.263,7.352c0.328,0,0.659-0.019,0.992-0.059l40.184-4.76    C430.883,177.436,434.148,173.293,433.607,168.723z" fill="#FFFFFF"/>
	</g>
</g>
<g>
	<g>
		<path d="M471.246,24.766H40.754C18.283,24.766,0,43.049,0,65.52v59.227c0,4.602,3.731,8.332,8.332,8.332    c4.601,0,8.332-3.731,8.332-8.332V65.52c0-13.284,10.807-24.09,24.09-24.09h430.492c13.284,0,24.09,10.807,24.09,24.09v284.411    h-52.21c-4.602,0-8.332,3.731-8.332,8.332s3.731,8.332,8.332,8.332h52.21v15.273c0,13.284-10.807,24.09-24.09,24.09h-155.41    H196.164H40.754c-13.284,0-24.09-10.807-24.09-24.09v-15.273h398.688c4.602,0,8.332-3.731,8.332-8.332s-3.731-8.332-8.332-8.332    H16.664V152.522c0-4.602-3.731-8.332-8.332-8.332c-4.601,0-8.332,3.73-8.332,8.332V381.87c0,22.472,18.283,40.754,40.754,40.754    H183.54l-20.494,47.945h-40.034c-4.602,0-8.332,3.731-8.332,8.332s3.731,8.332,8.332,8.332h265.975    c4.602,0,8.332-3.731,8.332-8.332s-3.731-8.332-8.332-8.332h-40.034l-20.494-47.945h142.786c22.472,0,40.754-18.282,40.754-40.754    V65.52C512,43.049,493.717,24.766,471.246,24.766z M330.83,470.568H181.17l14.238-33.31h121.185L330.83,470.568z" fill="#FFFFFF"/>
	</g>
</g>
<g>
	<g>
		<path d="M262.924,379.679c-1.914-2.906-5.583-4.299-8.952-3.457c-3.517,0.879-6.116,4.048-6.291,7.67    c-0.364,7.534,9.106,11.629,14.33,6.172C264.674,387.282,265.089,382.887,262.924,379.679z" fill="#FFFFFF"/>
	</g>
</g>
<g>
</g>
<g>
</g>
<g>
</g>
<g>
</g>
<g>
</g>
<g>
</g>
<g>
</g>
<g>
</g>
<g>
</g>
<g>
</g>
<g>
</g>
<g>
</g>
<g>
</g>
<g>
</g>
<g>
</g>
</svg>
