<?xml version="1.0" encoding="iso-8859-1"?>
<!-- Generator: Adobe Illustrator 19.0.0, SVG Export Plug-In . SVG Version: 6.00 Build 0)  -->
<svg xmlns="http://www.w3.org/2000/svg" xmlns:xlink="http://www.w3.org/1999/xlink" version="1.1" id="Layer_1" x="0px" y="0px" viewBox="0 0 511.999 511.999" style="enable-background:new 0 0 511.999 511.999;" xml:space="preserve" width="512px" height="512px">
<g>
	<g>
		<path d="M401.898,121.81c-2.526-1.502-5.656-1.561-8.239-0.159l-53.608,29.145v-0.733c0-18.075-14.705-32.781-32.78-32.781    h-168.46c-18.075,0-32.781,14.706-32.781,32.781v116.794c0,18.075,14.706,32.781,32.781,32.781h120.685    c4.602,0,8.332-3.731,8.332-8.332s-3.731-8.332-8.332-8.332H138.811c-8.886,0-16.117-7.23-16.117-16.117V150.062    c0-8.886,7.23-16.117,16.117-16.117h168.461c8.886,0,16.115,7.23,16.115,16.117v14.747v87.299v14.747    c0,8.886-7.229,16.117-16.115,16.117h-20.003c-4.602,0-8.332,3.731-8.332,8.332s3.731,8.332,8.332,8.332h20.003    c18.075,0,32.78-14.706,32.78-32.781v-0.733l53.608,29.145c1.243,0.675,2.612,1.012,3.981,1.012c1.474,0,2.947-0.391,4.258-1.17    c2.525-1.502,4.074-4.224,4.074-7.162V128.97C405.972,126.033,404.424,123.312,401.898,121.81z M389.308,273.935l-49.256-26.778    v-77.392l49.256-26.778V273.935z" fill="#FFFFFF"/>
	</g>
</g>
<g>
	<g>
		<path d="M276.072,201.245l-72.205-41.687c-2.577-1.489-5.755-1.489-8.332,0c-2.577,1.489-4.166,4.238-4.166,7.216v83.376    c0,2.977,1.589,5.727,4.166,7.216c1.289,0.744,2.727,1.117,4.166,1.117c1.439,0,2.877-0.372,4.166-1.117l72.205-41.687    c2.577-1.489,4.166-4.238,4.166-7.216C280.238,205.485,278.651,202.733,276.072,201.245z M208.033,235.716v-54.512l47.209,27.256    L208.033,235.716z" fill="#FFFFFF"/>
	</g>
</g>
<g>
	<g>
		<path d="M471.246,24.766H40.754C18.283,24.766,0,43.049,0,65.52v59.227c0,4.602,3.731,8.332,8.332,8.332    c4.601,0,8.332-3.731,8.332-8.332V65.52c0-13.284,10.807-24.09,24.09-24.09h430.492c13.284,0,24.09,10.807,24.09,24.09v284.411    h-52.21c-4.602,0-8.332,3.731-8.332,8.332s3.731,8.332,8.332,8.332h52.21v15.273c0,13.284-10.807,24.09-24.09,24.09h-155.41    H196.164H40.754c-13.284,0-24.09-10.807-24.09-24.09v-15.273h398.688c4.602,0,8.332-3.731,8.332-8.332s-3.731-8.332-8.332-8.332    H16.664V152.522c0-4.602-3.731-8.332-8.332-8.332c-4.601,0-8.332,3.73-8.332,8.332V381.87c0,22.472,18.283,40.754,40.754,40.754    H183.54l-20.494,47.945h-40.034c-4.602,0-8.332,3.731-8.332,8.332s3.731,8.332,8.332,8.332h265.975    c4.602,0,8.332-3.731,8.332-8.332s-3.731-8.332-8.332-8.332h-40.034l-20.494-47.945h142.786c22.472,0,40.754-18.282,40.754-40.754    V65.52C512,43.049,493.717,24.766,471.246,24.766z M330.83,470.568H181.17l14.238-33.31h121.185L330.83,470.568z" fill="#FFFFFF"/>
	</g>
</g>
<g>
	<g>
		<path d="M262.924,379.679c-1.914-2.906-5.583-4.299-8.952-3.457c-3.517,0.879-6.116,4.048-6.291,7.67    c-0.364,7.534,9.106,11.629,14.33,6.172C264.674,387.282,265.089,382.887,262.924,379.679z" fill="#FFFFFF"/>
	</g>
</g>
<g>
</g>
<g>
</g>
<g>
</g>
<g>
</g>
<g>
</g>
<g>
</g>
<g>
</g>
<g>
</g>
<g>
</g>
<g>
</g>
<g>
</g>
<g>
</g>
<g>
</g>
<g>
</g>
<g>
</g>
</svg>
